<svg width="676" height="93" viewBox="0 0 676 93" fill="none" xmlns="http://www.w3.org/2000/svg">
<path d="M215.946 80.7505L231.01 17.5607H248.726L263.316 80.7505H252.895L249.958 68.6914H228.926L226.178 80.7505H215.946ZM247.873 59.7194L240.863 26.5327H238.778L230.915 59.7194H247.873Z" fill="white"/>
<path d="M309.075 60.4912H299.696V80.7505H289.843V17.5607H309.359C316.559 17.5607 321.802 19.265 325.086 22.6737C328.433 26.0181 330.107 31.292 330.107 38.4953C330.107 53.1592 323.096 60.4912 309.075 60.4912ZM307.843 26.4362H299.696V51.3262H307.843C312.075 51.3262 315.17 50.3293 317.128 48.3356C319.086 46.2775 320.065 42.9974 320.065 38.4953C320.065 33.9932 319.054 30.8739 317.033 29.1374C315.075 27.3366 312.012 26.4362 307.843 26.4362Z" fill="white"/>
<path d="M378.708 60.4912H369.329V80.7505H359.476V17.5607H378.992C386.193 17.5607 391.435 19.265 394.719 22.6737C398.067 26.0181 399.74 31.292 399.74 38.4953C399.74 53.1592 392.73 60.4912 378.708 60.4912ZM377.477 26.4362H369.329V51.3262H377.477C381.708 51.3262 384.803 50.3293 386.761 48.3356C388.719 46.2775 389.698 42.9974 389.698 38.4953C389.698 33.9932 388.687 30.8739 386.666 29.1374C384.708 27.3366 381.645 26.4362 377.477 26.4362Z" fill="white"/>
<path d="M466.437 71.682V80.7505H431.289V17.5607H441.141V71.682H466.437Z" fill="white"/>
<path d="M496.943 59.5264V17.5607H506.89V58.3688C506.89 63.321 507.68 66.9227 509.259 69.1737C510.775 71.4248 513.68 72.5503 517.975 72.5503C522.27 72.5503 525.238 71.4569 526.88 69.2702C528.523 67.0835 529.344 63.4497 529.344 58.3688V17.5607H539.291V59.5264C539.291 67.0513 537.681 72.6146 534.46 76.2163C531.302 79.8179 525.744 81.6188 517.785 81.6188C509.827 81.6188 504.364 79.7858 501.396 76.1198C498.427 72.4538 496.943 66.9227 496.943 59.5264Z" fill="white"/>
<path d="M587.608 57.6935C584.198 57.8864 582.303 57.9829 581.924 57.9829H577.471V80.7505H567.618V17.5607H587.135C594.019 17.5607 599.23 19.1364 602.767 22.2878C606.303 25.375 608.072 30.5524 608.072 37.82C608.072 46.181 604.535 52.0659 597.461 55.4746C601.819 63.8999 605.482 72.3252 608.451 80.7505H597.84C594.998 72.9683 591.587 65.2827 587.608 57.6935ZM585.24 26.4362H577.471V48.7215H585.335C593.798 48.7215 598.03 45.0876 598.03 37.82C598.03 33.7681 597.019 30.8739 594.998 29.1374C592.977 27.3366 589.724 26.4362 585.24 26.4362Z" fill="white"/>
<path d="M639.431 80.7505V17.5607H675.716V26.6291H649.284V44.1872H673.158V52.8698H649.284V71.682H676V80.7505H639.431Z" fill="white"/>
<path fill-rule="evenodd" clip-rule="evenodd" d="M72.1084 1.20988L84.6642 1.20987V76.2463L72.1084 91.9215V21.0692L25.3558 79.8836H48.4202L38.8459 91.9215H0L72.1084 1.20988Z" fill="white"/>
<path fill-rule="evenodd" clip-rule="evenodd" d="M159.328 7.71682e-06L159.328 92.3581L157.328 92.3581L157.328 7.62939e-06L159.328 7.71682e-06Z" fill="white"/>
</svg>
